<?xml version="1.0" encoding="iso-8859-1"?>
<!-- Generator: Adobe Illustrator 19.0.0, SVG Export Plug-In . SVG Version: 6.00 Build 0)  -->
<svg version="1.1" id="Layer_1" xmlns="http://www.w3.org/2000/svg" xmlns:xlink="http://www.w3.org/1999/xlink" x="0px" y="0px"
	 viewBox="0 0 512 512" style="enable-background:new 0 0 512 512;" xml:space="preserve">
	<g>
		<path d="M481.077,222.257c41.231-41.232,41.231-108.321,0-149.552c-17.529-17.529-40.128-28.144-64.489-30.481
			c-8.699-15.496-25.235-25.551-43.682-25.551H50.092C22.471,16.673,0,39.144,0,66.765s22.471,50.092,50.092,50.092h16.697v328.379
			c0,27.621,22.471,50.092,50.092,50.092h322.814v-33.395c-9.207,0-16.697-7.49-16.697-16.697V280.337L481.077,222.257z
			 M66.789,83.462H50.092c-9.207,0-16.697-7.489-16.697-16.697c0-9.208,7.49-16.697,16.697-16.697s16.697,7.49,16.697,16.697V83.462
			z M116.881,461.933c-9.207,0-16.697-7.49-16.697-16.697V66.765c0-5.854-1.018-11.471-2.872-16.697h267.71
			c-12.36,5.24-23.72,12.86-33.498,22.639L161.339,242.89v125.94l-42.336,42.335l23.613,23.613l42.336-42.336h125.94l78.711-78.711
			v131.504c0,5.852,1.009,11.472,2.861,16.697H116.881z M297.057,359.048h-78.711l37.445-37.445l56.054-0.001l-0.001-33.394h-22.658
			l37.446-37.446h56.053v-33.394h-22.658l58.079-58.079l-23.613-23.613L194.733,335.435v-78.713L355.137,96.32
			c13.666-13.665,31.836-21.192,51.163-21.192c19.327,0,37.496,7.527,51.163,21.192c28.212,28.209,28.212,74.114,0,102.324
			L297.057,359.048z"/>
	</g>
</svg>
